# xmcd
#
# Track frame offsets:
#  150
#  18554
#  39321
#  55921
#  72136
#  90457
#  109436
#  124432
#  137926
#  153043
#  170267
#  189186
#  210368
#  230602
#  247632
#  263510
#  275732
#  289842
#  308949
#  330220
#  343410
#
# Disc length: 4798 seconds
#
# Revision: 0
# Processed by: cddbd v1.5.2PL0 Copyright (c) Steve Scherf et al.
# Submitted via: AltoMP3_Maker 3.0
#
DISCID=2812bc15
DTITLE=Various Artist - Country Radio Singles 180
DYEAR=1900
DGENRE=
TTITLE0=My Happiness
TTITLE1=Here On The Road
TTITLE2=What We Are
TTITLE3=Return of The Stockman
TTITLE4=Wayne and Wanita
TTITLE5=Landslide
TTITLE6=Just One of Our Mistakes
TTITLE7=Play The Song
TTITLE8=Your Mama Don't Dance
TTITLE9=A Little Weird Round Here
TTITLE10=Suvla Bay
TTITLE11=Even Cowgirls Sings The Blues
TTITLE12=Long Black Train
TTITLE13=Invincible Years
TTITLE14=I'm Coming Home
TTITLE15=Good Friends
TTITLE16=Woh Oh
TTITLE17=New Life
TTITLE18=Stretcher Bearer
TTITLE19=Gotta Take a Minute
TTITLE20=Cry Like a Baby
EXTD=
EXTT0=
EXTT1=
EXTT2=
EXTT3=
EXTT4=
EXTT5=
EXTT6=
EXTT7=
EXTT8=
EXTT9=
EXTT10=
EXTT11=
EXTT12=
EXTT13=
EXTT14=
EXTT15=
EXTT16=
EXTT17=
EXTT18=
EXTT19=
EXTT20=
PLAYORDER=
